<svg id="OBJECTS" xmlns="http://www.w3.org/2000/svg" viewBox="0 0 370.603 270.584"><defs><style>.cls-1{fill:#ededed;}.cls-2{fill:#222023;}.cls-3{fill:#a59aa5;}.cls-4{fill:#c2b8c2;}.cls-5{fill:#dbd5db;}.cls-6{fill:#fdc72f;}.cls-7{fill:#ffd56c;}.cls-10,.cls-11,.cls-21,.cls-22,.cls-26,.cls-28,.cls-29,.cls-8,.cls-9{fill:none;}.cls-10,.cls-8,.cls-9{stroke:#fff;}.cls-11,.cls-21,.cls-22,.cls-26,.cls-28,.cls-29,.cls-8{stroke-miterlimit:10;}.cls-8{stroke-width:2.205px;}.cls-10,.cls-9{stroke-linecap:round;stroke-linejoin:round;}.cls-9{stroke-width:13.138px;}.cls-10{stroke-width:9.032px;}.cls-11{stroke:#222021;stroke-width:0.991px;}.cls-12{fill:#9fdefd;}.cls-13{fill:#fff;}.cls-14{fill:#fba09f;}.cls-15{fill:#005fea;}.cls-16{fill:#1fa5f8;}.cls-17{fill:#fafafa;}.cls-18{fill:#21529f;}.cls-19{fill:#e0895a;}.cls-20{fill:#fac030;}.cls-21{stroke:#eaae28;}.cls-21,.cls-22,.cls-26,.cls-28{stroke-width:0.75px;}.cls-22{stroke:#1c96d3;}.cls-23{fill:#201c30;}.cls-24{fill:#cc6e44;}.cls-25{fill:#fdbc9b;}.cls-26{stroke:#0759aa;}.cls-27{fill:#ffac9d;}.cls-28{stroke:#ed8e8e;}.cls-29{stroke:#efa987;stroke-width:0.483px;}.cls-30{fill:#090b0c;}.cls-31{fill:#3d5057;}.cls-32{fill:#efa987;}.cls-33{fill:#171e21;}.cls-34{fill:#e49d7d;}.cls-35{fill:#2783f2;}.cls-36{fill:#e9b022;}.cls-37{fill:#f7c12e;}</style></defs><title>static-image</title><path class="cls-1" d="M329.439,142.22A142.22,142.22,0,1,0,98.1,253.052H276.334A141.942,141.942,0,0,0,329.439,142.22Z"/><path class="cls-2" d="M167.177,226.414h33.89a0,0,0,0,1,0,0v11.921a14.307,14.307,0,0,1-14.307,14.307h-5.275a14.307,14.307,0,0,1-14.307-14.307V226.414A0,0,0,0,1,167.177,226.414Z"/><path class="cls-3" d="M157.251,189.582h54.04a0,0,0,0,1,0,0v39.18a10.767,10.767,0,0,1-10.767,10.767H168.017a10.767,10.767,0,0,1-10.767-10.767v-39.18A0,0,0,0,1,157.251,189.582Z"/><path class="cls-4" d="M211.462,212.629H156.7a6.51,6.51,0,0,1-6.51-6.51h0a6.51,6.51,0,0,1,6.51-6.51h54.76a6.51,6.51,0,0,1,6.51,6.51h0A6.51,6.51,0,0,1,211.462,212.629Z"/><path class="cls-5" d="M178.646,212.629H167.177a6.51,6.51,0,0,1-6.51-6.51h0a6.51,6.51,0,0,1,6.51-6.51h11.469a6.51,6.51,0,0,1,6.51,6.51h0A6.51,6.51,0,0,1,178.646,212.629Z"/><path class="cls-4" d="M211.462,232.364H156.7a6.51,6.51,0,0,1-6.51-6.51h0a6.51,6.51,0,0,1,6.51-6.51h54.76a6.51,6.51,0,0,1,6.51,6.51h0A6.51,6.51,0,0,1,211.462,232.364Z"/><path class="cls-5" d="M173.24,232.364h-0.657a6.51,6.51,0,0,1-6.51-6.51h0a6.51,6.51,0,0,1,6.51-6.51h0.657a6.51,6.51,0,0,1,6.51,6.51h0A6.51,6.51,0,0,1,173.24,232.364Z"/><path class="cls-6" d="M261.155,100.059c0-39.229-34.408-71.03-76.851-71.03s-76.851,31.8-76.851,71.031c0,23.508,12.359,44.345,31.4,57.274l0,0s8.925,4.907,9.917,18.213v9.559c0,4.485,3.934,8.121,8.787,8.121h53.616c4.853,0,8.786-3.636,8.786-8.121v-9.643c1.019-13.258,9.749-18.085,9.749-18.085l0,0C248.768,144.451,261.155,123.594,261.155,100.059Z"/><circle class="cls-7" cx="185.186" cy="106.734" r="55.516"/><path class="cls-8" d="M176.2,193.228v-80.08a10.727,10.727,0,0,0-10.727-10.727h0a10.727,10.727,0,0,0-10.727,10.727v5.994a10.727,10.727,0,0,0,10.727,10.727l18.519,0.05"/><path class="cls-8" d="M191.967,193.228v-80.08a10.727,10.727,0,0,1,10.727-10.727h0a10.727,10.727,0,0,1,10.727,10.727v5.994a10.727,10.727,0,0,1-10.727,10.727l-19.941.05"/><path class="cls-9" d="M138.5,66.417a60.473,60.473,0,0,1,18.5-15.2"/><path class="cls-10" d="M126.244,116.771a60.463,60.463,0,0,1-1.265-12.336"/><path class="cls-10" d="M245.393,104.434a60.255,60.255,0,0,1-2.227,16.28"/><line class="cls-11" y1="252.653" x2="362.505" y2="252.653"/><line class="cls-11" x1="60.254" y1="270.089" x2="161" y2="270.089"/><path class="cls-12" d="M368.589,164.534l-16.755.036a2.017,2.017,0,0,1-2.019-2.014h0a2.017,2.017,0,0,1,2.014-2.019l16.755-.036a2.017,2.017,0,0,1,2.019,2.014h0A2.017,2.017,0,0,1,368.589,164.534Z"/><path class="cls-12" d="M68.37,29.533l-34.264.036a2.017,2.017,0,0,1-2.019-2.014h0a2.017,2.017,0,0,1,2.014-2.02L68.364,25.5a2.017,2.017,0,0,1,2.019,2.014h0A2.017,2.017,0,0,1,68.37,29.533Z"/><rect class="cls-12" x="328.269" y="28.197" width="6.24" height="6.044" rx="1.521" ry="1.521" transform="translate(-0.043 0.456) rotate(-0.079)"/><rect class="cls-12" x="3.071" y="153.873" width="6.24" height="6.044" rx="1.521" ry="1.521" transform="matrix(1, -0.001, 0.001, 1, -0.216, 0.009)"/><rect class="cls-13" x="82.12" y="122.871" width="5.483" height="5.31" rx="1.337" ry="1.337" transform="translate(-0.17 0.115) rotate(-0.077)"/><path class="cls-13" d="M192.5,15.774H175.81a1.986,1.986,0,0,1-1.986-1.986h0A1.986,1.986,0,0,1,175.81,11.8H192.5a1.986,1.986,0,0,1,1.986,1.986h0A1.986,1.986,0,0,1,192.5,15.774Z"/><path class="cls-14" d="M353.278,96.77H337.386a3.841,3.841,0,0,1-3.841-3.841h0a3.841,3.841,0,0,1,3.841-3.841h15.892a3.841,3.841,0,0,1,3.841,3.841h0A3.841,3.841,0,0,1,353.278,96.77Z"/><circle class="cls-13" cx="341.116" cy="92.942" r="0.983" transform="translate(-0.291 1.076) rotate(-0.181)"/><circle class="cls-13" cx="345.332" cy="92.929" r="0.983" transform="translate(-0.287 1.072) rotate(-0.178)"/><circle class="cls-13" cx="349.548" cy="92.916" r="0.983" transform="translate(-0.287 1.085) rotate(-0.178)"/><circle class="cls-15" cx="55.846" cy="76.922" r="14.104"/><path class="cls-13" d="M60.641,73.294a2.923,2.923,0,0,0-4.137.044l-0.745.761-0.767-.755a2.925,2.925,0,1,0-4.105,4.169l2.846,2.8c0.006,0.006.01,0.013,0.016,0.019a2.925,2.925,0,0,0,4.137-.043l2.8-2.859A2.926,2.926,0,0,0,60.641,73.294Z"/><path class="cls-16" d="M265.246,17.034h27.746a3.351,3.351,0,0,1,3.351,3.351v23.92a3.35,3.35,0,0,1-3.35,3.35h-26.8a4.294,4.294,0,0,1-4.294-4.294V20.385A3.35,3.35,0,0,1,265.246,17.034Z"/><path class="cls-17" d="M276.276,38.949c2.922,0.05,5.881.09,8.568-.1,0.851-.059,1.586-1.411.553-1.837a1.912,1.912,0,0,0,1.065-.926,0.913,0.913,0,0,0-.517-1.207c1.013,0.251,1.413-1.358.623-1.877a2.367,2.367,0,0,0,.855-1.37,1.373,1.373,0,0,0-.617-1.418,2.216,2.216,0,0,0-1.054-.182l-3.646-.027a8.413,8.413,0,0,0-.538-5.645,1.368,1.368,0,0,0-1.694-.719c-0.582.363-.421,1.265-0.391,1.834a6.422,6.422,0,0,1-3.314,5.86S276.306,36.379,276.276,38.949Z"/><rect class="cls-17" x="270.799" y="31.34" width="4.417" height="7.602"/><path class="cls-18" d="M329.161,253.052a1.383,1.383,0,0,1-1.3-.909L290.236,148.826,252.61,252.143a1.382,1.382,0,0,1-2.6-.947l38.925-106.884a1.382,1.382,0,0,1,2.6,0L330.46,251.2A1.383,1.383,0,0,1,329.161,253.052Z"/><path class="cls-18" d="M294.724,158.492H274.242a1.383,1.383,0,0,1,0-2.765h20.482A1.383,1.383,0,0,1,294.724,158.492Z"/><path class="cls-18" d="M300,173.564H280.476a1.383,1.383,0,0,1,0-2.765H300A1.383,1.383,0,0,1,300,173.564Z"/><path class="cls-18" d="M278.322,173.564h-18.7a1.384,1.384,0,0,1,0-2.765h18.7A1.384,1.384,0,0,1,278.322,173.564Z"/><path class="cls-18" d="M305.269,188.637H285.748a1.383,1.383,0,0,1,0-2.765h19.521A1.383,1.383,0,0,1,305.269,188.637Z"/><path class="cls-18" d="M274.242,188.637H254.721a1.383,1.383,0,0,1,0-2.765h19.521A1.383,1.383,0,0,1,274.242,188.637Z"/><path class="cls-18" d="M310.541,203.709H291.02a1.383,1.383,0,1,1,0-2.765h19.521A1.383,1.383,0,0,1,310.541,203.709Z"/><path class="cls-18" d="M268.5,203.709h-19.52a1.383,1.383,0,0,1,0-2.765H268.5A1.383,1.383,0,1,1,268.5,203.709Z"/><path class="cls-18" d="M315.813,218.781H296.292a1.383,1.383,0,1,1,0-2.765h19.521A1.383,1.383,0,0,1,315.813,218.781Z"/><path class="cls-18" d="M263.208,218.781H243.687a1.383,1.383,0,0,1,0-2.765h19.521A1.383,1.383,0,0,1,263.208,218.781Z"/><path class="cls-18" d="M321.085,233.854h-19.52a1.383,1.383,0,1,1,0-2.765h19.52A1.383,1.383,0,0,1,321.085,233.854Z"/><path class="cls-18" d="M257.78,233.854H238.259a1.383,1.383,0,1,1,0-2.765H257.78A1.383,1.383,0,0,1,257.78,233.854Z"/><path class="cls-18" d="M290.135,146.168H269.653a1.383,1.383,0,1,1,0-2.765h20.482A1.383,1.383,0,0,1,290.135,146.168Z"/><polygon class="cls-19" points="296.286 211.04 296.916 199.96 302.862 200.744 301.691 212.381 296.003 211.372 296.286 211.04"/><path d="M302.52,209.548s-4,2.063-6.226-1l-10.792,5.8,18.485-.117Z"/><rect class="cls-3" x="285.508" y="214.285" width="18.486" height="1.672" transform="translate(-1.356 1.87) rotate(-0.363)"/><path class="cls-20" d="M302.7,136.849s-5.337,3.15-5.973,20.756-1.735,47.177-1.735,47.177h9l4.625-57.37L307.4,136.849h-4.7Z"/><polygon class="cls-19" points="311.819 211.04 311.233 199.96 317.179 200.744 317.224 212.381 311.536 211.372 311.819 211.04"/><path d="M318.053,209.548s-4,2.063-6.226-1l-10.792,5.8,18.485-.117Z"/><rect class="cls-3" x="301.04" y="214.285" width="18.485" height="1.672" transform="translate(-1.355 1.968) rotate(-0.363)"/><path class="cls-20" d="M314.89,139.132s5.4,6.246,4.6,17.191l-0.263,48.583-10.225-.268-3.236-66.123Z"/><polyline class="cls-21" points="307.062 167.23 306.487 153.15 302.62 147.775"/><path class="cls-19" d="M269.235,117.072L280.736,128a3.143,3.143,0,0,0,4.927-.779l1.108-2.041L271.22,113.9Z"/><circle class="cls-19" cx="268.138" cy="114.455" r="3.514" transform="translate(76.571 334.227) rotate(-72.038)"/><path class="cls-19" d="M269.044,111.06l-3.239-1.995a0.605,0.605,0,0,0-.826.122h0a0.521,0.521,0,0,0,.068.705l3.069,2.726Z"/><path class="cls-19" d="M282.511,123.015l14.809-5.471-0.7,7s-7.975,3.471-13,4.257S282.511,123.015,282.511,123.015Z"/><path class="cls-16" d="M301.192,117.273s-1.362-2.115-4.859-.644-9.92,3.63-9.92,3.63l5.566,9.543,10.545-3.959Z"/><path class="cls-16" d="M315.3,115.156l-7.814-.743-9.8,1.792s-0.649,14.107.983,21.354a2.626,2.626,0,0,0,2.745,2.051l13.992,0.2a5.5,5.5,0,0,0,2-4.287l-1-19.22A1.216,1.216,0,0,0,315.3,115.156Z"/><line class="cls-22" x1="297.202" y1="127.402" x2="296.725" y2="122.011"/><path class="cls-15" d="M339.217,148.73l-45.58-4.746a1.855,1.855,0,0,1-1.661-2.03l0.549-5.493a1.855,1.855,0,0,1,2.03-1.661l45.58,4.746a1.855,1.855,0,0,1,1.661,2.03l-0.549,5.493A1.855,1.855,0,0,1,339.217,148.73Z"/><path class="cls-19" d="M326.544,139.374a31.723,31.723,0,0,1,1.791-3.4L323.207,125.4c-0.709-2.111-5.165-9.437-6.989-8.16-1.34.938-.466,9.156,0.245,10.629l5.44,10.379Z"/><path class="cls-16" d="M314.538,115.069s4.5,0.33,6.247,3.074c2.212,3.473,6.036,9.1,6.036,9.1l-11.5,4.308Z"/><line class="cls-22" x1="316.888" y1="130.963" x2="312.585" y2="123.565"/><path class="cls-19" d="M323.293,134.029L310.745,143.1l2,2.937,13.6-5.891a3.42,3.42,0,0,0,1.222-5.382h0A3.42,3.42,0,0,0,323.293,134.029Z"/><path class="cls-19" d="M313.095,145.576s-1.7,4.067-4.924,3.662c-3.721-.467-4.04-3.416-2.345-4.012l2.513,0.187a2.764,2.764,0,0,1,1.61-2.321,3.79,3.79,0,0,1,1.342-.3Z"/><path class="cls-19" d="M310.517,142.9l-3.469.628a0.5,0.5,0,0,0-.391.484h0a0.5,0.5,0,0,0,.451.493l3.355,0.281Z"/><path class="cls-23" d="M296.219,104.248a15.345,15.345,0,0,0,2.3-2.9l1.052-2.68,3.315,0.908-1.6,3.3-0.91.634,6.7,7.8s-4.851,4.686-9.529,1.726C293.6,110.546,294.236,105.916,296.219,104.248Z"/><path class="cls-23" d="M314.538,100.44a6.166,6.166,0,0,0,2.435,3.808c2.035,1.36,2.619,6.3-1.322,8.792-4.677,2.96-9.529-1.726-9.529-1.726Z"/><path class="cls-23" d="M301.327,96.014s9.417-4.054,12.622,2.185c1.884,3.669-.368,10.1-4.994,11.929-4.407,1.746-3.157-12.614-3.157-12.614Z"/><circle class="cls-24" cx="300.37" cy="105.033" r="2.155" transform="translate(-7.76 25.598) rotate(-4.818)"/><path class="cls-19" d="M303.191,110.872l0.366,4.681a2.344,2.344,0,0,0,2.823,2.31h0a2.629,2.629,0,0,0,2.673-2.323l-0.931-7.339Z"/><polygon class="cls-24" points="303.449 114.254 308.853 109.333 303.144 110.393 303.449 114.254"/><path class="cls-19" d="M304.628,111.609h0a5.059,5.059,0,0,1-5.2-4.357l-0.241-5.332a5.255,5.255,0,0,1,4.807-5.506h0c2.892-.244,5.941,1.861,6.185,4.753l0.147,4.29A5.978,5.978,0,0,1,304.628,111.609Z"/><path class="cls-23" d="M309.481,104.969a4.116,4.116,0,0,0-1.829-2.866c-1.615-.947-6.027-2.326-5.579-5.744,0,0,6.841-2.008,9.362,2.468S309.481,104.969,309.481,104.969Z"/><circle class="cls-19" cx="310.825" cy="105.216" r="2.155" transform="translate(-7.739 26.477) rotate(-4.818)"/><path class="cls-23" d="M303.879,96.36s-0.5,2.808-4.848,4.688c0,0-1.08-2.039,1.813-4.736a1.458,1.458,0,0,1,.987-0.391l3.354-.01Z"/><path class="cls-19" d="M311.33,114.764l-4.357-.467-5.774,1.266s0.02,4.15,4.694,3.868A5.827,5.827,0,0,0,311.33,114.764Z"/><path class="cls-16" d="M308.389,253.052a1.383,1.383,0,0,1-1.3-.909L269.464,148.826,231.837,252.143a1.382,1.382,0,0,1-2.6-.947l38.925-106.884a1.382,1.382,0,0,1,2.6,0L309.688,251.2A1.383,1.383,0,0,1,308.389,253.052Z"/><polygon class="cls-25" points="57.493 234.26 56.719 245.653 51.469 245.427 51.651 233.89 57.493 234.26"/><path d="M57.109,244.388l9.568,4.363a1.515,1.515,0,0,1,.8,1.7H50.6l0.627-6.134Z"/><rect class="cls-4" x="50.299" y="250.452" width="17.39" height="1.815" transform="translate(117.987 502.718) rotate(180)"/><polygon class="cls-25" points="40.4 234.26 39.625 245.653 34.375 245.427 34.558 233.89 40.4 234.26"/><path d="M40.016,244.388l9.568,4.363a1.516,1.516,0,0,1,.8,1.7H33.5l0.627-6.134Z"/><rect class="cls-4" x="33.205" y="250.452" width="17.39" height="1.815" transform="translate(83.801 502.718) rotate(180)"/><polygon class="cls-15" points="54.46 180.758 34.32 182.293 31.648 238.873 42.681 238.873 46.255 196.197 51.044 214.433 49.413 239.563 58.809 239.59 62.051 211.803 54.46 180.758"/><line class="cls-26" x1="50.759" y1="193.738" x2="46.255" y2="196.197"/><polygon class="cls-27" points="54.2 163.496 54.07 169.049 57.222 169.09 56.99 163.113 54.2 163.496"/><path class="cls-14" d="M54.394,154.071s5.051,2.992,4.326,12.505l-4.688-1.051Z"/><path class="cls-14" d="M44.237,150.943a43.755,43.755,0,0,0-10.815,1.752l0.218,32.245,21.412-1.645-0.226-28.2a1.372,1.372,0,0,0-.718-1.194l-5.922-2.534S45.271,150.943,44.237,150.943Z"/><line class="cls-28" x1="54.902" y1="165.721" x2="54.902" y2="159.501"/><path class="cls-25" d="M35.959,163.561L34.581,179.51s-1.521,3.208-4.211-.129-0.388-16.369-.388-16.369Z"/><path class="cls-14" d="M36.673,166.914s1.742-13.551-1.985-14.243c-3.864-.717-7.508,8.407-7.508,15.952Z"/><polyline class="cls-28" points="35.646 167.002 37.084 166.577 37.353 160.177"/><path class="cls-25" d="M45.1,164.576a4.369,4.369,0,0,1,3.59-3.086c2.814-.274,3.642,1.935,3.112,3.39s-2.361,3.824-5.135,2.612S45.1,164.576,45.1,164.576Z"/><path class="cls-25" d="M49.627,161.494a17.511,17.511,0,0,1,4.821,1.32,0.544,0.544,0,0,1,.293.562h0a0.548,0.548,0,0,1-.644.467l-3.815-.713Z"/><polygon class="cls-25" points="33.986 180.322 46.671 167.493 45.103 164.576 32.764 172.416 33.986 180.322"/><line class="cls-29" x1="35.335" y1="170.783" x2="32.764" y2="172.416"/><path class="cls-30" d="M62.427,167.8l-5.335,15.837a1.2,1.2,0,0,1-1.3.809l-12.967-1.7a1.2,1.2,0,0,1-.98-1.587l5.492-15.817a1.2,1.2,0,0,1,1.293-.8l12.811,1.683A1.2,1.2,0,0,1,62.427,167.8Z"/><polygon class="cls-30" points="62.2 166.63 62.877 167.51 42.674 183.109 41.949 182.165 62.2 166.63"/><path class="cls-31" d="M63.038,168.591L57.7,184.429a1.2,1.2,0,0,1-1.3.809l-12.967-1.7a1.2,1.2,0,0,1-.98-1.587l5.492-15.817a1.2,1.2,0,0,1,1.293-.8l12.811,1.683A1.2,1.2,0,0,1,63.038,168.591Z"/><path class="cls-25" d="M62.433,173.194l-1.215,3.276a0.914,0.914,0,0,1-.976.588h0a2.024,2.024,0,0,1-1.669-2.607l0.342-1.1a2.024,2.024,0,0,1,2.028-1.421l0.676,0.032A0.914,0.914,0,0,1,62.433,173.194Z"/><path class="cls-25" d="M48.913,146.149l-0.644,5.2a2.559,2.559,0,0,1-3.169,2.431h0c-1.483-.2-3.025-1.122-2.761-2.723l0.766-8.16Z"/><path class="cls-32" d="M48.319,150.943s-5.855-2.125-5.362-7.37c0.147-1.562,5.983,2.348,5.983,2.348Z"/><path class="cls-25" d="M49.571,151.958l-2.526-1.175-4.456.127-2.613.365S39,155.19,45.611,155.408C50.894,155.582,49.571,151.958,49.571,151.958Z"/><path class="cls-33" d="M52.4,139.4s5.083-3.785,2.76-7.291-6.542-.468-6.542-0.468Z"/><path class="cls-33" d="M48.319,130.707S34,128.68,40.3,139.772l1.63-4.5Z"/><path class="cls-33" d="M52.671,133.736s2.4,2-.61,6.406l-0.8-5.617Z"/><path class="cls-34" d="M49.978,141.441a2.178,2.178,0,0,0,1.864,2.439,2.155,2.155,0,0,0,2.368-1.932,2.178,2.178,0,0,0-1.864-2.439A2.155,2.155,0,0,0,49.978,141.441Z"/><path class="cls-25" d="M46.7,147.984h0a5.55,5.55,0,0,0,5.8-4.692l0.411-5.282a5.818,5.818,0,0,0-5-6.331h0c-3.125-.375-6.509,1.873-6.881,5.1l-0.27,4.12A6.6,6.6,0,0,0,46.7,147.984Z"/><path class="cls-33" d="M52.935,136.754s0.2-1.388-2.525-1.726-6.227-.109-8.167,2.317L42.2,141.164l-2.431-2.4,1.28-5.686,7.272-2.371,4.352,3.028Z"/><path class="cls-25" d="M38.008,140.661a2.157,2.157,0,0,0,1.846,2.416,2.134,2.134,0,0,0,2.345-1.913,2.157,2.157,0,0,0-1.846-2.416A2.134,2.134,0,0,0,38.008,140.661Z"/><path class="cls-33" d="M50.475,131.811s0.649-1.657-1.634-2.577c-1.962-.791-3.991-0.454-8.371,2.511Z"/><path class="cls-33" d="M51.992,145.611a0.862,0.862,0,0,0-.522-0.781,8.788,8.788,0,0,0-2.213-.611,12.073,12.073,0,0,0-4.241.482,0.966,0.966,0,0,1-1.109-.5,12.044,12.044,0,0,1-.979-8.231l-1.514,1.1,0.2,2.328s1.182,2.52-.668,3.638c0,0-.088,5.215,4.744,6.156a7.23,7.23,0,0,0,4.276-.568A3.52,3.52,0,0,0,51.992,145.611Z"/><path class="cls-33" d="M42.367,138.483a2.71,2.71,0,0,0,1.952-3.841c-1.225-3.1-2.717.842-2.717,0.842Z"/><polygon class="cls-25" points="84.222 254.74 89.319 246.633 95.319 249.673 89.165 259.107 84.347 256.935 84.222 254.74"/><path d="M84.119,254.11s2.932,4.733,6.848,3.445l4.5,11.2-15.8-11.422Z"/><rect class="cls-4" x="86.22" y="253.98" width="1.695" height="19.495" transform="translate(-177.668 179.774) rotate(-54.135)"/><polygon class="cls-15" points="100.862 206.143 94.706 232.222 84.364 249.594 94.192 255.287 106.617 233.168 110.731 216.504 100.862 206.143"/><polygon class="cls-35" points="94.223 255.834 83.615 249.541 86.659 244.509 97.255 251.178 94.223 255.834"/><polygon class="cls-25" points="131.618 262.722 127.765 253.954 133.647 250.692 138.006 261.079 133.505 263.849 131.618 262.722"/><path d="M131.038,262.453s5.563,0.227,6.693-3.737l11.792,2.558-18.242,6.51Z"/><rect class="cls-4" x="130.907" y="264.56" width="19.495" height="1.695" transform="translate(-82.346 64.173) rotate(-20.015)"/><path class="cls-15" d="M112.761,198.967v5.921l15.567,24.06,9.743,26.339-9.527,3.814-9.83-24.121-18.588-23.953s-6.249-8.088,1.243-15.193Z"/><line class="cls-26" x1="109.197" y1="222.716" x2="99.806" y2="210.615"/><polygon class="cls-35" points="138.802 255.045 127.722 259.595 125.601 254.109 136.972 249.8 138.802 255.045"/><path class="cls-32" d="M113.86,177.632l7.228,5.263,8.725-11.168,2.693,1.482s-3.234,11.007-7.545,16.566a2.771,2.771,0,0,1-3.2.856,44.124,44.124,0,0,1-12.086-7.636Z"/><path class="cls-36" d="M116.029,179.212l-5.473,9.116-5.364-4.131a5.278,5.278,0,0,1-1.19-7.083h0a5.259,5.259,0,0,1,7.675-1.419Z"/><path class="cls-37" d="M111.678,175.7l-8.543-2.942s-7.342,6.553-1.766,23.079l11.392,3.134a72.941,72.941,0,0,0,1.078-9.923C118.184,182.964,111.678,175.7,111.678,175.7Z"/><rect class="cls-16" x="127.382" y="154.234" width="31.658" height="31.249" rx="4.945" ry="4.945"/><path class="cls-13" d="M149.24,168.674l-1-.175a5.178,5.178,0,0,0-.516-1.245l0.583-.831a0.768,0.768,0,0,0-.086-0.984l-0.6-.6a0.768,0.768,0,0,0-.984-0.07l-0.831.583a5.174,5.174,0,0,0-1.245-.516l-0.172-1.022a0.767,0.767,0,0,0-.742-0.637h-0.863a0.767,0.767,0,0,0-.758.637l-0.175,1a5.174,5.174,0,0,0-1.245.516l-0.828-.557a0.767,0.767,0,0,0-.984.086l-0.6.6a0.767,0.767,0,0,0-.086.984l0.583,0.831a5.174,5.174,0,0,0-.516,1.245l-1,.175a0.767,0.767,0,0,0-.637.758v0.847a0.767,0.767,0,0,0,.637.758l1,0.175a5.172,5.172,0,0,0,.516,1.245l-0.583.831a0.767,0.767,0,0,0,.086.984l0.6,0.6a0.768,0.768,0,0,0,.984.086l0.831-.583a5.179,5.179,0,0,0,1.245.516l0.175,1a0.768,0.768,0,0,0,.758.637h0.86a0.768,0.768,0,0,0,.758-0.637l0.175-1a5.17,5.17,0,0,0,1.245-.516l0.812,0.57a0.767,0.767,0,0,0,.984-0.086l0.6-.6a0.768,0.768,0,0,0,.086-0.984l-0.583-.838a5.176,5.176,0,0,0,.516-1.245l1-.175a0.767,0.767,0,0,0,.637-0.758v-0.847A0.768,0.768,0,0,0,149.24,168.674Zm-6.031,3.465a2.286,2.286,0,1,1,2.286-2.286v0.013A2.286,2.286,0,0,1,143.209,172.138Z"/><path class="cls-25" d="M111.935,180.747l6.279,7.6,10.641-9.358,2.24,2.1s-5.867,9.859-11.423,14.172a2.77,2.77,0,0,1-3.316.033,44.125,44.125,0,0,1-9.811-10.4Z"/><path class="cls-25" d="M136.626,175.824a0.46,0.46,0,0,0-.582-0.061l-1.573.982-0.123-.1L136,174.99a0.5,0.5,0,0,0,.011-0.7,0.569,0.569,0,0,0-.779-0.017l-1.832,1.639-0.168-.131,1.735-2.385a0.448,0.448,0,0,0-.073-0.6,0.52,0.52,0,0,0-.715.05l-1.971,2.149h0l-0.2-.149,1.092-1.975a0.45,0.45,0,0,0-.153-0.6,0.522,0.522,0,0,0-.715.155l-1.121,1.766c0.006,0.035-.4.913-0.873,1.908l-0.317-1.745a0.433,0.433,0,0,0-.347-0.341,0.465,0.465,0,0,0-.563.4c-0.08,1.107-.016,4.358-0.157,4.582l2.24,2.1,4.339-3.6,1.169-1.1A0.4,0.4,0,0,0,136.626,175.824Z"/><path class="cls-20" d="M113.745,182.716l-7.667,7.572-4.17-5.333a5.278,5.278,0,0,1,.607-7.156h0a5.279,5.279,0,0,1,7.786.755Z"/><polyline class="cls-21" points="108.748 187.823 106.078 190.287 101.908 184.954"/><line class="cls-21" x1="113.745" y1="182.716" x2="109.746" y2="177.923"/><path class="cls-33" d="M110.64,164.826l4.224-1.074c2.889,1.685,3.332,6.408,3.332,6.408h-7.343Z"/><polygon class="cls-25" points="112.068 167.983 109.788 174.755 103.598 172.23 107.032 162.058 112.068 167.983"/><path class="cls-32" d="M110.733,171.948c0.04-.118-1.165-4.217-1.165-4.217l2.57,1.174Z"/><path class="cls-25" d="M113.908,153.917s3.214,0.536,3.388,4.578c0,0,.094,2.931.2,7.15a3.492,3.492,0,0,1-4.146,3.557,10.429,10.429,0,0,1-4.139-1.867l-1.86-1.741c-4.337-4.855-.359-12.62,6.092-11.75Q113.669,153.876,113.908,153.917Z"/><path class="cls-25" d="M116.947,162.7l1.465,1.391a0.325,0.325,0,0,1-.19.56l-1.46.155Z"/><path class="cls-33" d="M109.628,161.164s-1.9-9.819,6.575-5.824c0,0-3.287-5.369-10.747-2.125a6.538,6.538,0,0,0-3.472,4.266c-0.47,2.716,1.04,5.035,3.452,9.3l2.842-3.3A11.877,11.877,0,0,1,109.628,161.164Z"/><path class="cls-33" d="M106.9,158.284l1.7,4.049c10.861-3.391,5.909-8.475,5.909-8.475S105.726,151.248,106.9,158.284Z"/><polygon class="cls-33" points="112.357 160.217 110.833 162.487 108.923 159.834 112.357 160.217"/><path class="cls-33" d="M112.942,154.394s3.718,0.62,4.257,3.2c0,0,2.934-3.019-3.125-4.275C110.467,152.572,112.942,154.394,112.942,154.394Z"/><path class="cls-33" d="M108.983,163.484s-0.7,4.922-.235,6.675l-9.093-.493A17.52,17.52,0,0,0,101.469,164c0.11-1.95-.879-6.4,2.129-9.421l1.5,5.846Z"/><circle class="cls-25" cx="108.748" cy="162.678" r="2.147" transform="translate(-62.251 257.808) rotate(-85.326)"/><path class="cls-25" d="M103.134,172.754a12.558,12.558,0,0,0,8.543,2.942l-3.717-4.385-3.619-.765Z"/></svg>